<svg xmlns="http://www.w3.org/2000/svg" viewBox="0 0 200 60" width="200" height="60">
  <!-- Background circle for logo -->
  <circle cx="30" cy="30" r="25" fill="#22c55e" opacity="0.1"/>
  
  <!-- Garden tools icon -->
  <g transform="translate(15, 15)">
    <!-- Shovel handle -->
    <rect x="8" y="2" width="2" height="12" fill="#8b5cf6" rx="1"/>
    <!-- Shovel blade -->
    <path d="M6 14 L14 14 L12 18 L8 18 Z" fill="#22c55e"/>
    <!-- Rake handle -->
    <rect x="12" y="4" width="2" height="10" fill="#8b5cf6" rx="1"/>
    <!-- Rake head -->
    <rect x="10" y="12" width="6" height="1" fill="#22c55e"/>
    <rect x="10" y="14" width="6" height="1" fill="#22c55e"/>
    <rect x="10" y="16" width="6" height="1" fill="#22c55e"/>
    <!-- Watering can -->
    <ellipse cx="20" cy="8" rx="3" ry="4" fill="#3b82f6" opacity="0.8"/>
    <rect x="18" y="4" width="1" height="4" fill="#3b82f6"/>
    <rect x="22" y="4" width="1" height="4" fill="#3b82f6"/>
  </g>
  
  <!-- Company name -->
  <text x="60" y="25" font-family="Arial, sans-serif" font-size="18" font-weight="bold" fill="#1f2937">
    Bobsgroen
  </text>
  <text x="60" y="42" font-family="Arial, sans-serif" font-size="12" font-weight="normal" fill="#6b7280">
    Hoveniers
  </text>
  
  <!-- Decorative leaf -->
  <path d="M170 20 Q175 15 180 20 Q175 25 170 20" fill="#22c55e" opacity="0.6"/>
  <path d="M175 15 Q180 10 185 15 Q180 20 175 15" fill="#16a34a" opacity="0.8"/>
</svg>
