<svg xmlns="http://www.w3.org/2000/svg" viewBox="0 0 200 60" width="200" height="60">
  <!-- Circular background -->
  <circle cx="30" cy="30" r="25" fill="#f0f9f0" stroke="#22c55e" stroke-width="1"/>
  
  <!-- Garden tools icon -->
  <g transform="translate(15, 15)">
    <!-- Shovel handle -->
    <rect x="8" y="2" width="2" height="12" fill="#8b5cf6" rx="1"/>
    <!-- Shovel blade -->
    <path d="M6 14 L14 14 L12 18 L8 18 Z" fill="#22c55e"/>
    <!-- Rake handle -->
    <rect x="12" y="4" width="2" height="10" fill="#8b5cf6" rx="1"/>
    <!-- Rake head -->
    <rect x="10" y="12" width="6" height="1" fill="#22c55e"/>
    <rect x="10" y="14" width="6" height="1" fill="#22c55e"/>
    <rect x="10" y="16" width="6" height="1" fill="#22c55e"/>
    <!-- Watering can -->
    <ellipse cx="20" cy="8" rx="3" ry="4" fill="#3b82f6" opacity="0.8"/>
    <rect x="19" y="6" width="2" height="4" fill="#3b82f6"/>
    <!-- Small plant sprout -->
    <path d="M22 12 Q24 10 26 12 Q24 14 22 12" fill="#22c55e"/>
  </g>
  
  <!-- Company name -->
  <text x="70" y="25" font-family="Arial, sans-serif" font-size="20" font-weight="bold" fill="#374151">Bobsgroen</text>
  <text x="70" y="45" font-family="Arial, sans-serif" font-size="14" font-weight="normal" fill="#6b7280">Hoveniers</text>
  
  <!-- Small leaf icon -->
  <g transform="translate(180, 20)">
    <path d="M0 0 Q2 -2 4 0 Q2 2 0 0" fill="#22c55e"/>
    <path d="M2 0 Q4 -1 6 0 Q4 1 2 0" fill="#22c55e" opacity="0.7"/>
    <path d="M4 0 Q6 -1 8 0 Q6 1 4 0" fill="#22c55e" opacity="0.5"/>
  </g>
</svg>